<?xml version="1.0" encoding="UTF-8"?>
<!DOCTYPE svg PUBLIC "-//W3C//DTD SVG 1.1//EN" "http://www.w3.org/Graphics/SVG/1.1/DTD/svg11.dtd">
<!-- Creator: CorelDRAW (OEM Version) -->
<svg xmlns="http://www.w3.org/2000/svg" xml:space="preserve" width="6.09601in" height="0.984209in" version="1.1" style="shape-rendering:geometricPrecision; text-rendering:geometricPrecision; image-rendering:optimizeQuality; fill-rule:evenodd; clip-rule:evenodd"
viewBox="0 0 747.71 120.72"
 xmlns:xlink="http://www.w3.org/1999/xlink"
 xmlns:xodm="http://www.corel.com/coreldraw/odm/2003">
 <defs>
  <style type="text/css">
   <![CDATA[
    .fil0 {fill:#22C55E}
    .fil1 {fill:#22C55E;fill-rule:nonzero}
    .fil2 {fill:#FEF3C7;fill-rule:nonzero}
   ]]>
  </style>
 </defs>
 <g id="Layer_x0020_1">
  <metadata id="CorelCorpID_0Corel-Layer"/>
  <circle class="fil0" cx="60.36" cy="60.36" r="60.36"/>
  <polygon class="fil1" points="164.71,106.82 164.71,14.41 148.47,14.41 148.47,106.82 "/>
  <path id="_1" class="fil1" d="M176.72 14.41l0 92.41 16.24 0 0 -76c6.6,21.59 26.45,34.61 50.89,37.52l0 38.48 16.24 0 0 -92.41 -16.24 0 0 37.47c-21.08,-3.12 -36.97,-15.09 -36.97,-37.47l-30.17 0z"/>
  <polygon id="_2" class="fil1" points="308.68,63.37 308.68,106.82 324.89,106.82 324.89,63.37 327.2,60.62 365.49,14.41 344.69,14.41 316.79,48.08 288.89,14.41 268.08,14.41 306.36,60.62 "/>
  <path id="_3" class="fil1" d="M407.89 90.61c-17.93,0 -32.48,-13.42 -32.48,-29.97 0,-16.55 14.54,-29.95 32.48,-29.95 17.93,0 32.48,13.4 32.48,29.95 0,16.55 -14.54,29.97 -32.48,29.97zm-48.72 -29.99c0,25.52 21.81,46.21 48.72,46.21 26.91,0 48.69,-20.68 48.69,-46.21 0,-25.52 -21.81,-46.21 -48.69,-46.21 -26.91,0 -48.72,20.68 -48.72,46.21z"/>
  <path id="_4" class="fil1" d="M464.53 14.41l0 92.41 16.24 0 0 -75.98c4.82,31.09 22.66,54.15 42.88,54.15 20.2,0 38.04,-23.1 42.86,-54.15l0 75.98 16.24 0 0 -92.41 -31.2 0c-0.07,30.03 -13.25,54.33 -27.9,54.33 -14.68,0 -27.83,-24.31 -27.9,-54.33l-31.22 0z"/>
  <polygon id="_5" class="fil1" points="594.7,14.41 594.7,106.82 667.18,106.82 667.18,90.61 610.94,90.61 610.94,68.74 653.47,68.74 653.47,52.5 610.94,52.5 610.94,30.65 667.18,30.65 667.18,14.41 "/>
  <polygon id="_6" class="fil1" points="675.23,14.41 675.23,106.82 747.71,106.82 747.71,90.61 691.47,90.61 691.47,68.74 734,68.74 734,52.5 691.47,52.5 691.47,30.65 747.71,30.65 747.71,14.41 "/>
  <path class="fil2" d="M28.7 35.61l0 49.5 8.7 0 0 -40.69c2.58,16.65 12.14,29 22.97,29 10.82,0 20.38,-12.37 22.96,-29l0 40.69 8.7 0 0 -49.5 -16.71 0c-0.04,16.09 -7.09,29.1 -14.94,29.1 -7.86,0 -14.91,-13.02 -14.94,-29.1l-16.72 0z"/>
 </g>
</svg>
